<svg id="Layer_1" data-name="Layer 1" xmlns="http://www.w3.org/2000/svg" viewBox="0 0 826 826"><defs><style>.cls-1{fill:#57371c;}.cls-2{fill:#2c1b0c;}.cls-3{fill:#6b411d;}.cls-4{fill:#56361b;}.cls-5{fill:#824b1d;}.cls-6{fill:#462b13;}.cls-7{fill:#7d4d22;}.cls-8{fill:#54361d;}.cls-11,.cls-9{fill:none;}.cls-9{stroke:#754c24;stroke-miterlimit:10;stroke-width:92px;}.cls-10{fill:#fff;}</style></defs><title>Logo</title><path class="cls-1" d="M1281.07,872.89c1,.57,1,1.51,1,2.46A2.69,2.69,0,0,1,1281.07,872.89Z" transform="translate(-544 -153.42)"/><path class="cls-1" d="M1282.17,875.88a2.27,2.27,0,0,1,.91,2.08A2.19,2.19,0,0,1,1282.17,875.88Z" transform="translate(-544 -153.42)"/><path class="cls-1" d="M1283,877.9c.93.44,1,1.27,1,2.15A2.32,2.32,0,0,1,1283,877.9Z" transform="translate(-544 -153.42)"/><path class="cls-2" d="M1197.06,656.06l0-1C1197.73,655.35,1197.72,655.7,1197.06,656.06Z" transform="translate(-544 -153.42)"/><path class="cls-3" d="M774.53,381.07a1.69,1.69,0,0,1,1.7-1,10.16,10.16,0,0,0,4.87-.67c28.14-12.16,57.48-12.72,87-7.72,24.91,4.21,48.24,13.31,70.26,25.83a268.55,268.55,0,0,1,80.73,70c18.85,24.44,33.09,51.36,41.46,81.2,6.84,24.42,9.22,49.23,4.74,74.28-4.72,26.36-16.21,49.25-36.42,67.49a116.83,116.83,0,0,1-39,23.43c-9.18,3.32-18.76,5.14-28.29,7.15-47.47,4.62-90.8-7.93-130.67-32.85-54.38-34-93.5-80.59-112.76-142.42-10.17-32.65-11.85-65.74-.58-98.66C727.22,419,746,398.4,771.13,383.12l1.44-.9h0C773.39,382.13,774.16,382,774.53,381.07Zm48.07,65.12-1-1,0,0a2.07,2.07,0,0,0-2-1l0,0-1-1,0,0-2-1.14c-6.11-5-13.46-7.62-20.58-10.55-9.76-4-19.79-7.34-30.42-8.29-.34-.4-.55-1.26-1.27-.37l1.28.36q0,.46,0,.92l1,1.06v0a6.63,6.63,0,0,0,1.19,1.55C790.83,443,809.25,463.87,826.36,486c20.82,26.89,39.29,55.47,58.83,83.28,18.54,26.38,38,52,62.82,72.94,13.91,11.75,29.33,20.65,47.19,24.64,6.29,1.41,12.77,2.86,19.36,1.41.66-.36.67-.71,0-1l.06.05c-7.12-6-14.57-11.58-21.29-18-21.08-20-38.23-43.29-54.76-67.07-17-24.42-32.93-49.56-51-73.19-13.27-17.3-27.2-34-43.93-48.14-5-4.24-9.9-8.83-16-11.72v0a3.32,3.32,0,0,0-3-2v0a2,2,0,0,0-2-1ZM1015,698.72c-6.88-1.25-12.09.34-17.37.47a250.14,250.14,0,0,1-33.26-1.87,200.57,200.57,0,0,1-65.28-18.46c-27.54-13.15-51.39-31.37-72.31-53.7a368.54,368.54,0,0,1-42.94-56c-18.86-30-33.7-61.85-46.14-94.92-3-7.84-5.79-15.73-8.72-23.7-.67.45-1.09.57-1.16.79-7.49,24.78-8.17,49.9-3.62,75.27,4.33,24.17,13.46,46.51,25.85,67.61a249.19,249.19,0,0,0,54.51,64.29,242.86,242.86,0,0,0,57.69,36c21.52,9.67,44,16.08,67.56,17.46,16.86,1,33.87,1.06,50.6-2.75C991.72,706.67,1002.9,703.81,1015,698.72Zm43.66-69.47c2.4-6.2,2.42-11.6,2.72-16.75a169.77,169.77,0,0,0-4.37-51.39,240.37,240.37,0,0,0-25.4-62c-16.22-28.14-37.22-52.22-61.94-73-21.39-17.94-45.17-32.21-71.81-41.13-5.59-1.87-11.18-4.2-17.25-4.36a112,112,0,0,0,10.23,6.21A308.83,308.83,0,0,1,953,431.43,389.85,389.85,0,0,1,991,471c18.33,22.3,34.28,46,46.59,72.16C1050.23,570,1059,597.77,1058.66,629.25Z" transform="translate(-544 -153.42)"/><path class="cls-4" d="M961.59,721.12c9.52-2,19.1-3.83,28.29-7.15a116.83,116.83,0,0,0,39-23.43c20.21-18.24,31.71-41.13,36.42-67.49,4.48-25,2.1-49.86-4.74-74.28-8.36-29.84-22.61-56.76-41.46-81.2a268.55,268.55,0,0,0-80.73-70c-22-12.52-45.36-21.62-70.26-25.83-29.53-5-58.87-4.44-87,7.72a10.16,10.16,0,0,1-4.87.67c14.73-8.72,30.87-13.07,47.71-14.89,39.38-4.25,76.29,4.84,110.88,22.9,64.54,33.68,110.62,84.08,134.13,153.62,10.26,30.35,13.32,61.61,4.64,93-13.19,47.61-45.21,75-93.17,84.49C974.23,720.42,968,721.46,961.59,721.12Z" transform="translate(-544 -153.42)"/><path class="cls-4" d="M774.53,381.07c-.36.89-1.14,1.06-2,1.14Z" transform="translate(-544 -153.42)"/><path class="cls-4" d="M772.56,382.21l-1.44.9Z" transform="translate(-544 -153.42)"/><path class="cls-5" d="M1015,698.72c-12.1,5.09-23.28,8-34.59,10.53-16.74,3.81-33.75,3.74-50.6,2.75-23.52-1.38-46-7.79-67.56-17.46a242.86,242.86,0,0,1-57.69-36,249.19,249.19,0,0,1-54.51-64.29c-12.39-21.1-21.52-43.44-25.85-67.61-4.55-25.36-3.87-50.48,3.62-75.27.07-.23.49-.35,1.16-.79,2.93,8,5.77,15.86,8.72,23.7,12.44,33.07,27.28,65,46.14,94.92a368.54,368.54,0,0,0,42.94,56c20.92,22.33,44.77,40.55,72.31,53.7a200.57,200.57,0,0,0,65.28,18.46,250.14,250.14,0,0,0,33.26,1.87C1002.91,699.05,1008.13,697.46,1015,698.72Z" transform="translate(-544 -153.42)"/><path class="cls-6" d="M765.57,424.13q0-.46,0-.92h0c10.63,1,20.66,4.28,30.42,8.29,7.12,2.93,14.47,5.58,20.58,10.55a1.92,1.92,0,0,0,2,1.14l0,0,1,1,0,0a2,2,0,0,0,2,1l0,0,1,1,0,0a1.91,1.91,0,0,0,2,1v0c.06,2.07,1.5,2.1,3,2v0c-.06,2.37,1.81,3.54,3.27,4.76,8.31,7,15.63,14.86,22.94,22.84A501.8,501.8,0,0,1,886.36,517c25.91,34.92,48.72,72.07,76.06,106,8.45,10.48,17.16,20.64,27.49,29.44,4.22,3.59,9.63,5.86,12.66,10.84a7.45,7.45,0,0,1-3.82-.93,175.65,175.65,0,0,1-48.42-32.92c-23-21.73-40.78-47.65-58.4-73.65-19.09-28.17-37-57.17-59.77-82.71-14.73-16.52-31-31-50.51-41.61-4.73-2.58-9.25-6.07-15-6.21v0Z" transform="translate(-544 -153.42)"/><path class="cls-7" d="M766.59,425.17c5.8.14,10.32,3.63,15,6.21C801.1,442,817.43,456.47,832.15,473c22.77,25.54,40.68,54.54,59.77,82.71,17.62,26,35.42,51.92,58.4,73.65a175.65,175.65,0,0,0,48.42,32.92,7.45,7.45,0,0,0,3.82.93c3.85,1.83,7.6,3.94,12,4l-.06-.05,0,1c-6.59,1.44-13.07,0-19.36-1.41-17.86-4-33.29-12.89-47.19-24.64-24.82-21-44.28-46.56-62.82-72.94-19.54-27.81-38-56.39-58.83-83.28-17.1-22.09-35.52-43-58.58-59.23A6.63,6.63,0,0,1,766.59,425.17Z" transform="translate(-544 -153.42)"/><path class="cls-8" d="M1058.66,629.25c.38-31.48-8.43-59.24-21.08-86.12C1025.27,517,1009.32,493.26,991,471a389.85,389.85,0,0,0-38-39.54,308.83,308.83,0,0,0-62.14-44.59,112,112,0,0,1-10.23-6.21c6.07.15,11.66,2.48,17.25,4.36,26.65,8.93,50.42,23.19,71.81,41.13,24.72,20.74,45.72,44.82,61.94,73a240.37,240.37,0,0,1,25.4,62,169.77,169.77,0,0,1,4.37,51.39C1061.07,617.65,1061.06,623,1058.66,629.25Z" transform="translate(-544 -153.42)"/><path class="cls-2" d="M1014.59,667.25c-4.43-.09-8.18-2.21-12-4-3-5-8.44-7.25-12.66-10.84-10.33-8.79-19-19-27.49-29.44-27.34-33.9-50.15-71-76.06-106a501.8,501.8,0,0,0-32.57-40.2c-7.31-8-14.63-15.88-22.94-22.84-1.46-1.22-3.32-2.4-3.27-4.76,6.06,2.89,10.93,7.48,16,11.72C860.29,475,874.22,491.72,887.48,509c18.12,23.63,34.07,48.76,51,73.19,16.53,23.77,33.68,47,54.76,67.07C1000,655.66,1007.47,661.28,1014.59,667.25Z" transform="translate(-544 -153.42)"/><path class="cls-2" d="M827.6,449.18c-1.51.08-2.95.06-3-2A3.32,3.32,0,0,1,827.6,449.18Z" transform="translate(-544 -153.42)"/><path class="cls-6" d="M765.57,423.21l-1.28-.36c.72-.89.92,0,1.27.37Z" transform="translate(-544 -153.42)"/><path class="cls-2" d="M818.6,443.2a1.92,1.92,0,0,1-2-1.14Z" transform="translate(-544 -153.42)"/><path class="cls-2" d="M821.6,445.19a2,2,0,0,1-2-1A2.07,2.07,0,0,1,821.6,445.19Z" transform="translate(-544 -153.42)"/><path class="cls-2" d="M824.6,447.19a1.91,1.91,0,0,1-2-1A2,2,0,0,1,824.6,447.19Z" transform="translate(-544 -153.42)"/><path class="cls-7" d="M765.57,424.13l1,1.06Z" transform="translate(-544 -153.42)"/><path class="cls-2" d="M819.6,444.2l-1-1Z" transform="translate(-544 -153.42)"/><path class="cls-2" d="M822.59,446.19l-1-1Z" transform="translate(-544 -153.42)"/><path class="cls-3" d="M956.69,693.84l-.24-.22.09-.31c0-.95,0-1.9-1-2.46-8.11-20-12.21-40.83-10.58-62.36,4.45-58.64,30-106.26,76.58-142.18,20.55-15.86,43.89-25.68,70.22-26.9,28.23-1.31,51.49,9.48,70.78,29.64.16.81.44,1.51,1.41,1.6l-.11-.13c-.25,1.55.47,2.25,2,2.25l.8,1c.35,4.75,3.89,7.94,5.91,11.86,13.93,27,16.54,55.83,11.71,85.22a192.31,192.31,0,0,1-43.68,94.7c-18.16,21.43-39.47,38.49-65.81,48.66-18.09,7-36.79,9.92-56.12,6.18-25.05-4.85-44-18.41-57.32-40.11-.7-1.14-1.18-2.46-2.89-2.29l.06.07c0-.88,0-1.7-1-2.15l0,.07A2.27,2.27,0,0,0,956.69,693.84Zm166-156c1.87-1.6,1.92-3.85,2.14-6,3.35-5.88,3.73-12.62,4.41-19,.84-7.9,1.55-16-.53-24-.15-.08-.29-.21-.44-.21s-.38.1-.41.21c-4.06,15-12.17,28-20.68,40.59-14.93,22.15-32.78,42-50,62.33-16.33,19.2-32.58,38.38-44.88,60.6-9.37,16.93-14.8,34.61-12.46,54.11.25,2-.24,4.65,1.94,6.22,1.94.14,1.87-1.54,2.38-2.67a213,213,0,0,1,14-26.4c15.87-24.94,36-46.44,55.08-68.81C1086.69,599,1099.89,583,1110.45,565c5-8.57,10.11-17.22,12.24-27.14Zm-143,181,.41.22-.4-.22a31.67,31.67,0,0,0-.67-3.39c-7.05-22.67-11.16-45.58-8.48-69.54a168.46,168.46,0,0,1,15.12-53.85c14.27-30.12,34.76-55.52,59.19-78.06a451.22,451.22,0,0,1,49.25-39.5c2.67-1.85,5.83-3.37,8-6.41a80,80,0,0,0-22.29,1c-26.45,4.66-49.08,17.18-68.72,35a177.24,177.24,0,0,0-44.3,62.56c-10.83,25.51-16.62,51.86-14.25,79.84,1.21,14.18,3.89,27.86,9.19,41C966.22,698.8,971.41,709.69,979.64,718.84Zm202.2-156.12a13.36,13.36,0,0,0-1.09,2.58c-3.51,17.88-9.75,34.83-17.48,51.26-14.74,31.31-34.34,59.13-59.66,82.83-12.3,11.52-25.55,21.69-40.65,29.34a137.08,137.08,0,0,1-21.26,8.67,6.35,6.35,0,0,0,3.08.37A125.41,125.41,0,0,0,1082.14,726c21.76-10.82,40.09-26.06,55.42-44.76,20.42-24.9,35-52.82,41.61-84.55A129.53,129.53,0,0,0,1181.84,562.72Z" transform="translate(-544 -153.42)"/><path class="cls-1" d="M958.47,697.93c1.71-.17,2.19,1.16,2.89,2.29,13.27,21.7,32.26,35.26,57.32,40.11,19.33,3.74,38,.8,56.12-6.18,26.34-10.17,47.66-27.23,65.81-48.66a192.31,192.31,0,0,0,43.68-94.7c4.83-29.38,2.23-58.17-11.71-85.22-2-3.92-5.56-7.1-5.91-11.86,12.53,14.59,19.17,31.89,21.93,50.55,7.63,51.69-7.87,97.4-37.88,138.76-20.7,28.53-47.07,50.31-81.07,61.35-28.33,9.2-55.85,7.93-81.22-9.34A81.33,81.33,0,0,1,958.47,697.93Z" transform="translate(-544 -153.42)"/><path class="cls-1" d="M1165.87,492.77c-1.51,0-2.23-.69-2-2.25Z" transform="translate(-544 -153.42)"/><path class="cls-1" d="M1164,490.65c-1-.1-1.25-.8-1.41-1.6Z" transform="translate(-544 -153.42)"/><path class="cls-5" d="M979.64,718.84c-8.24-9.15-13.42-20-18-31.31-5.3-13.19-8-26.86-9.19-41-2.38-28,3.42-54.32,14.25-79.84a177.24,177.24,0,0,1,44.3-62.56c19.64-17.86,42.27-30.38,68.72-35a80,80,0,0,1,22.29-1c-2.17,3-5.32,4.56-8,6.41a451.22,451.22,0,0,0-49.25,39.5c-24.43,22.54-44.93,47.94-59.19,78.06A168.46,168.46,0,0,0,970.5,645.9c-2.68,24,1.42,46.88,8.48,69.54a31.67,31.67,0,0,1,.67,3.39Z" transform="translate(-544 -153.42)"/><path class="cls-6" d="M1128.69,488.87c2.08,7.94,1.37,16.07.53,24-.68,6.37-1.05,13.11-4.41,19-2.18,1.5-2.23,3.74-2.14,6l0,0c-1.2.46-1.6,1.48-2.12,2.58a202.35,202.35,0,0,1-17.22,29.09c-21,30.08-46.33,56.66-69.09,85.32-11.24,14.15-22.32,28.5-29,45.63-.5,1.28-.44,3.13-2.41,3.46,2.09-16.37,7.83-31.47,15.89-45.77,13.8-24.51,32.8-45,51.14-66,15.54-17.75,31.07-35.46,42.83-56.06C1121.15,521.44,1127.38,506,1128.69,488.87Z" transform="translate(-544 -153.42)"/><path class="cls-7" d="M1128.69,488.87c-1.32,17.1-7.54,32.57-15.93,47.26-11.76,20.59-27.29,38.31-42.83,56.06-18.35,21-37.35,41.45-51.14,66-8.05,14.31-13.79,29.4-15.89,45.77-.61,2.91-1.71,5.75-1.18,8.81-2.19-1.57-1.7-4.18-1.94-6.22-2.34-19.5,3.09-37.18,12.46-54.11,12.29-22.22,28.55-41.4,44.88-60.6,17.26-20.3,35.12-40.18,50-62.33,8.51-12.63,16.62-25.62,20.68-40.59,0-.1.27-.21.41-.21S1128.54,488.79,1128.69,488.87Z" transform="translate(-544 -153.42)"/><path class="cls-8" d="M1181.84,562.72a129.53,129.53,0,0,1-2.68,34c-6.64,31.73-21.19,59.65-41.61,84.55-15.33,18.7-33.66,33.94-55.42,44.76a125.41,125.41,0,0,1-37.35,11.72,6.35,6.35,0,0,1-3.08-.37,137.08,137.08,0,0,0,21.26-8.67c15.1-7.65,28.35-17.82,40.65-29.34,25.32-23.71,44.92-51.52,59.66-82.83,7.73-16.42,14-33.38,17.48-51.26A13.36,13.36,0,0,1,1181.84,562.72Z" transform="translate(-544 -153.42)"/><path class="cls-2" d="M1001.72,712.72c-.53-3.06.57-5.9,1.18-8.81,2-.33,1.91-2.18,2.41-3.46,6.64-17.13,17.72-31.48,29-45.63,22.76-28.66,48.09-55.24,69.09-85.32a202.35,202.35,0,0,0,17.22-29.09c.52-1.1.92-2.12,2.12-2.58-2.13,9.92-7.2,18.57-12.24,27.14-10.56,18-23.76,34-37.25,49.85-19.06,22.37-39.21,43.87-55.08,68.81a213,213,0,0,0-14,26.4C1003.59,711.18,1003.66,712.86,1001.72,712.72Z" transform="translate(-544 -153.42)"/><path class="cls-2" d="M1122.67,537.87c-.1-2.3,0-4.54,2.14-6C1124.6,534,1124.54,536.27,1122.67,537.87Z" transform="translate(-544 -153.42)"/><path class="cls-5" d="M1305.13,900.88l.4.22-.41-.22Z" transform="translate(-544 -153.42)"/><path class="cls-6" d="M870.08,725l-.74-1c1.14-.29.46.7.72,1Z" transform="translate(-544 -153.42)"/><path class="cls-7" d="M872,727.23,870.94,725C871.93,725.47,872.05,726.31,872,727.23Z" transform="translate(-544 -153.42)"/><path class="cls-2" d="M1047.1,860.9a7.22,7.22,0,0,1,1,0q0,.5,0,1l-1-1Z" transform="translate(-544 -153.42)"/><path class="cls-7" d="M1048.1,861.88q0-.5,0-1C1048.76,861.18,1048.79,861.51,1048.1,861.88Z" transform="translate(-544 -153.42)"/><circle class="cls-9" cx="413" cy="413" r="367"/><path class="cls-10" d="M601.87,409.33l39,15.21-3.05,7.83-16.6-6.47-6.52,16.71,16.6,6.47-3.05,7.83-39-15.21,3.05-7.82,16,6.25,6.52-16.71-16-6.25Z" transform="translate(-544 -153.42)"/><path class="cls-10" d="M645.64,411.51a15.32,15.32,0,0,1-8.15,2.51,18.06,18.06,0,0,1-9-2.28,17.71,17.71,0,0,1-6.9-6.2,15.65,15.65,0,0,1-2.45-8.26,18.83,18.83,0,0,1,8.14-15.38,15.64,15.64,0,0,1,8.21-2.61,17.7,17.7,0,0,1,9,2.23,17.33,17.33,0,0,1,6.87,6.25,16,16,0,0,1,2.41,8.34,18.15,18.15,0,0,1-2.23,8.77A17.49,17.49,0,0,1,645.64,411.51Zm.48-14.38a8.07,8.07,0,0,0-1.44-4.39,11.22,11.22,0,0,0-4.21-3.59q-4.19-2.22-7.61-1.21a8.18,8.18,0,0,0-5.1,4.19,8,8,0,0,0-.57,6.52q1.12,3.34,5.31,5.56t7.55,1.32a7.8,7.8,0,0,0,5-4.08A8.74,8.74,0,0,0,646.12,397.13Z" transform="translate(-544 -153.42)"/><path class="cls-10" d="M645.63,362.08l13.5,8.74a3.17,3.17,0,0,0,2.48.64,4,4,0,0,0,2.11-1.88l2.12-3.27,5.94,3.85-2.87,4.44q-5.76,8.92-14.43,3.31L641,369.18l-2.15,3.33-5.79-3.75,2.15-3.33-6.9-4.47,4.59-7.11,6.9,4.47,4-6.25,5.79,3.75Z" transform="translate(-544 -153.42)"/><path class="cls-10" d="M688.61,320a10.33,10.33,0,0,1,6.51,2.53,10.64,10.64,0,0,1,3.44,5.08,11,11,0,0,1,0,6.22,17.5,17.5,0,0,1-3.67,6.57l-11.67,13.79-31.95-27.08,11.16-13.19a17.92,17.92,0,0,1,5.8-4.72,10.46,10.46,0,0,1,6-1.09,10.06,10.06,0,0,1,5.28,2.39,9.56,9.56,0,0,1,3.41,5.45,10.44,10.44,0,0,1-.7,6.21A9.41,9.41,0,0,1,688.61,320Zm-18.76,11.86,5-5.86a7,7,0,0,0,2-4.4,4.76,4.76,0,0,0-1.91-3.74,4.84,4.84,0,0,0-4-1.29,6.93,6.93,0,0,0-4,2.63l-5,5.86Zm21,.45a5,5,0,0,0-2-3.94,5.25,5.25,0,0,0-4.39-1.36,7.25,7.25,0,0,0-4.31,2.72L674.79,336l8.6,7.29,5.46-6.46A7.19,7.19,0,0,0,690.84,332.3Z" transform="translate(-544 -153.42)"/><path class="cls-10" d="M720.55,294.12l-17.6,16.75a8.25,8.25,0,0,0,5.71,2.35,7.77,7.77,0,0,0,5.36-2.29,6.86,6.86,0,0,0,2.05-7.5l6.56-6.25a15.15,15.15,0,0,1,1.44,9.52,16.11,16.11,0,0,1-5.13,9.15,17.33,17.33,0,0,1-7.7,4.39,15,15,0,0,1-8.46-.27,18.48,18.48,0,0,1-7.75-5.05,18.84,18.84,0,0,1-4.72-8,14.66,14.66,0,0,1,.13-8.4,18.87,18.87,0,0,1,12.41-11.89,14.34,14.34,0,0,1,8.21.18,17.52,17.52,0,0,1,7.43,4.81A20,20,0,0,1,720.55,294.12Zm-10,1.75a6.66,6.66,0,0,0-5.27-2.15,8.29,8.29,0,0,0-5.39,2.43,7.63,7.63,0,0,0-2.5,5,8.31,8.31,0,0,0,1.73,5.6Z" transform="translate(-544 -153.42)"/><path class="cls-10" d="M719,280.25a14.72,14.72,0,0,1,.72-8.08,14.53,14.53,0,0,1,4.87-6.33,13.56,13.56,0,0,1,6.09-2.74,13.24,13.24,0,0,1,5.85.31l-2.87-3.77,6.74-5.12L760.51,281l-6.74,5.12-2.94-3.87a12.5,12.5,0,0,1-1.22,5.79,13.66,13.66,0,0,1-4.31,5.19,14.12,14.12,0,0,1-7.4,2.91,15.12,15.12,0,0,1-8-1.55,19.56,19.56,0,0,1-7.06-6A19.23,19.23,0,0,1,719,280.25Zm20.58-10.84a8.46,8.46,0,0,0-4.61-.72,8.66,8.66,0,0,0-4.2,1.72,8.43,8.43,0,0,0-3.29,8.11,10.43,10.43,0,0,0,2.16,4.88,10.78,10.78,0,0,0,4.16,3.44,8.86,8.86,0,0,0,4.67.79,8.24,8.24,0,0,0,4.14-1.64,8.65,8.65,0,0,0,2.78-3.58,8.46,8.46,0,0,0,.55-4.63,12.08,12.08,0,0,0-6.35-8.36Z" transform="translate(-544 -153.42)"/><path class="cls-10" d="M775.66,236.72q5.06,1.36,8.49,7.14l10,16.77-7.23,4.28-9.37-15.79a8.63,8.63,0,0,0-4.81-4.23,7,7,0,0,0-5.73.92,7.18,7.18,0,0,0-3.64,4.63,8.53,8.53,0,0,0,1.38,6.26l9.37,15.79-7.23,4.28-17-28.58,7.23-4.28,2.11,3.56a11.57,11.57,0,0,1,2-5.1,13.27,13.27,0,0,1,4.3-4A12.83,12.83,0,0,1,775.66,236.72Z" transform="translate(-544 -153.42)"/><path class="cls-10" d="M805.26,254.27a12.93,12.93,0,0,1-6.33-1.48,10.12,10.12,0,0,1-4.22-4.2l7.68-3.54a4.61,4.61,0,0,0,3.05,2.1,6.57,6.57,0,0,0,4.26-.58,6.38,6.38,0,0,0,3-2.44,2.91,2.91,0,0,0,.19-2.8,2.6,2.6,0,0,0-2.52-1.52,31.18,31.18,0,0,0-5.51.59,44.7,44.7,0,0,1-6.31.86,10.6,10.6,0,0,1-4.94-1,7.9,7.9,0,0,1-3.79-4.13,8.61,8.61,0,0,1-.67-5.24,10.66,10.66,0,0,1,2.63-5.18,17.11,17.11,0,0,1,5.8-4.12q5.39-2.48,9.85-1.27a11,11,0,0,1,6.9,5.64l-7.3,3.37a4.35,4.35,0,0,0-2.82-2.17,7.43,7.43,0,0,0-6.9,2.81,2.68,2.68,0,0,0-.14,2.64,2.75,2.75,0,0,0,2.6,1.61,26,26,0,0,0,5.48-.58,44.22,44.22,0,0,1,6.17-.8,10.49,10.49,0,0,1,4.92,1A8.15,8.15,0,0,1,820.2,238a8.8,8.8,0,0,1,.72,5.35,10.46,10.46,0,0,1-2.64,5.15,17.29,17.29,0,0,1-5.75,4.07A17.53,17.53,0,0,1,805.26,254.27Z" transform="translate(-544 -153.42)"/><path class="cls-10" d="M886.17,183.8l-.6,43.49L876,229.84,860.79,203,860.47,234,851,236.55l-21.63-37.65,8.7-2.31,15.45,29.54-.08-33.63,9-2.41,16,29.2-1.08-33.18Z" transform="translate(-544 -153.42)"/><path class="cls-10" d="M930.5,206.77l-24.13,2.9a8.26,8.26,0,0,0,3.17,5.3,7.76,7.76,0,0,0,5.66,1.38,6.86,6.86,0,0,0,6.14-4.79l9-1.08a15.14,15.14,0,0,1-4.55,8.49,16.12,16.12,0,0,1-9.58,4.26,17.33,17.33,0,0,1-8.8-1.09,15,15,0,0,1-6.61-5.28,18.47,18.47,0,0,1-3.18-8.68,18.84,18.84,0,0,1,1-9.25,14.68,14.68,0,0,1,5.13-6.66,18.88,18.88,0,0,1,17.06-2.11,14.35,14.35,0,0,1,6.46,5.06,17.51,17.51,0,0,1,3.07,8.3A19.77,19.77,0,0,1,930.5,206.77Zm-9.07-4.59a6.66,6.66,0,0,0-2.94-4.87,8.29,8.29,0,0,0-5.77-1.27,7.63,7.63,0,0,0-5,2.5,8.32,8.32,0,0,0-2,5.52Z" transform="translate(-544 -153.42)"/><path class="cls-10" d="M950.54,188a13.76,13.76,0,0,1,6.5-1.55,14.54,14.54,0,0,1,7.73,2,14.78,14.78,0,0,1,5.51,5.92,19.2,19.2,0,0,1,2.08,9,19.57,19.57,0,0,1-1.94,9,15.13,15.13,0,0,1-5.41,6.13,14.22,14.22,0,0,1-7.69,2.22,13.77,13.77,0,0,1-6.52-1.42,12.64,12.64,0,0,1-4.5-3.77l0,4.74-8.4.07-.37-44.4,8.4-.07.13,16A12,12,0,0,1,950.54,188Zm12,10.25a8.53,8.53,0,0,0-3.27-3.3,8.67,8.67,0,0,0-4.36-1.1,8.39,8.39,0,0,0-4.28,1.2,8.69,8.69,0,0,0-3.21,3.42,11.69,11.69,0,0,0,.09,10.44,8.68,8.68,0,0,0,3.27,3.36,8.47,8.47,0,0,0,8.64-.1,8.91,8.91,0,0,0,3.21-3.45,10.75,10.75,0,0,0,1.19-5.29A10.42,10.42,0,0,0,962.5,198.27Z" transform="translate(-544 -153.42)"/><path class="cls-10" d="M1023.82,186.74a18.45,18.45,0,0,1,6.54,8.44,21.9,21.9,0,0,1,1,11.36A21.57,21.57,0,0,1,1027,217a18.53,18.53,0,0,1-8.75,6,25,25,0,0,1-11.87.79L992,221.61l6.31-41.4,14.47,2.22A25,25,0,0,1,1023.82,186.74Zm-6,28q4.1-3,5.09-9.48t-2-10.66q-3-4.2-9.53-5.19l-5.87-.9-4.17,27.34,5.87.9Q1013.73,217.73,1017.83,214.71Z" transform="translate(-544 -153.42)"/><path class="cls-10" d="M1067,223.08l-23.45-6.38a8.26,8.26,0,0,0,1,6.11,7.77,7.77,0,0,0,4.73,3.4,6.85,6.85,0,0,0,7.48-2.13l8.74,2.38a15.11,15.11,0,0,1-7.39,6.16,16.1,16.1,0,0,1-10.48.35,17.35,17.35,0,0,1-7.75-4.32,15,15,0,0,1-4.15-7.38,18.48,18.48,0,0,1,.3-9.25,18.8,18.8,0,0,1,4.4-8.19,14.64,14.64,0,0,1,7.24-4.25,18.88,18.88,0,0,1,16.6,4.46,14.38,14.38,0,0,1,4.1,7.12,17.53,17.53,0,0,1-.26,8.85A19.94,19.94,0,0,1,1067,223.08Zm-6.69-7.67a6.66,6.66,0,0,0-.9-5.62,8.31,8.31,0,0,0-4.87-3.35,7.62,7.62,0,0,0-5.56.45,8.29,8.29,0,0,0-3.89,4.38Z" transform="translate(-544 -153.42)"/><path class="cls-10" d="M1084.52,236.39l17-20.76,8.34,3.22-23.45,26.57-9.51-3.68.56-35.42,8.39,3.25Z" transform="translate(-544 -153.42)"/><path class="cls-10" d="M1135.33,253.07l-21.64-11a8.26,8.26,0,0,0-.32,6.17,7.78,7.78,0,0,0,3.94,4.3,6.86,6.86,0,0,0,7.76-.55l8.07,4.12a15.14,15.14,0,0,1-8.51,4.52,16.12,16.12,0,0,1-10.33-1.8,17.33,17.33,0,0,1-6.7-5.81,15,15,0,0,1-2.55-8.07,18.46,18.46,0,0,1,2.2-9,18.81,18.81,0,0,1,6-7.11,14.65,14.65,0,0,1,8-2.67,18.89,18.89,0,0,1,15.34,7.76,14.36,14.36,0,0,1,2.55,7.8,17.51,17.51,0,0,1-2.07,8.61A19.86,19.86,0,0,1,1135.33,253.07Zm-5-8.87a6.65,6.65,0,0,0,.28-5.68,8.29,8.29,0,0,0-4.08-4.27,7.63,7.63,0,0,0-5.54-.7,8.32,8.32,0,0,0-4.71,3.49Z" transform="translate(-544 -153.42)"/><path class="cls-10" d="M1164.19,235.41,1141,273.3l-7.17-4.37L1157,231Z" transform="translate(-544 -153.42)"/><path class="cls-10" d="M1153.68,279.57a15.31,15.31,0,0,1-1.35-8.42,18.06,18.06,0,0,1,3.5-8.57,17.72,17.72,0,0,1,7.1-6,15.66,15.66,0,0,1,8.52-1.28,18.83,18.83,0,0,1,14.1,10.19A15.61,15.61,0,0,1,1187,274a17.66,17.66,0,0,1-3.45,8.61,17.33,17.33,0,0,1-7.15,5.94,16,16,0,0,1-8.59,1.23,18.13,18.13,0,0,1-8.37-3.42A17.48,17.48,0,0,1,1153.68,279.57Zm14.18,2.47a8.08,8.08,0,0,0,4.55-.82,11.21,11.21,0,0,0,4.14-3.67q2.78-3.84,2.26-7.36a8.17,8.17,0,0,0-3.44-5.63,8,8,0,0,0-6.38-1.46q-3.46.64-6.24,4.48t-2.35,7.29a7.79,7.79,0,0,0,3.34,5.56A8.74,8.74,0,0,0,1167.86,282Z" transform="translate(-544 -153.42)"/><path class="cls-10" d="M1209.35,284.45a13.56,13.56,0,0,1,5.85,3.25,14.54,14.54,0,0,1,4.29,6.74,14.77,14.77,0,0,1,0,8.09,19.18,19.18,0,0,1-4.55,8,19.56,19.56,0,0,1-7.57,5.32,15.14,15.14,0,0,1-8.14.83,14.25,14.25,0,0,1-7.16-3.59,13.42,13.42,0,0,1-3.76-5.45,13.82,13.82,0,0,1-.81-5.84L1173.66,317l-6.21-5.65,33.05-36.28,6.21,5.65-3.23,3.55A12.77,12.77,0,0,1,1209.35,284.45Zm1.84,15.62a8.51,8.51,0,0,0-.15-4.64,8.68,8.68,0,0,0-2.45-3.77,8.39,8.39,0,0,0-4-2,8.69,8.69,0,0,0-4.68.33,11.69,11.69,0,0,0-7,7.72,8.66,8.66,0,0,0,.11,4.69,8.46,8.46,0,0,0,6.41,5.79,8.92,8.92,0,0,0,4.7-.35,10.74,10.74,0,0,0,4.47-3.08A10.43,10.43,0,0,0,1211.19,300.07Z" transform="translate(-544 -153.42)"/><path class="cls-10" d="M1263.39,347q-.53,5.28-5.74,9.53l-15.1,12.33-5.31-6.51,14.22-11.61a8.3,8.3,0,0,0,3.37-5.31,7.12,7.12,0,0,0-1.81-5.49,7.22,7.22,0,0,0-5-2.9,8.22,8.22,0,0,0-5.89,2.22l-14.22,11.61-5.31-6.51,14.22-11.61a8.3,8.3,0,0,0,3.37-5.31,7.12,7.12,0,0,0-1.81-5.49,7.3,7.3,0,0,0-5.08-2.94,8.23,8.23,0,0,0-5.9,2.22l-14.22,11.61-5.31-6.51,25.74-21,5.31,6.51-3.11,2.54a11.18,11.18,0,0,1,5.19,1.14,13,13,0,0,1,4.48,3.59,14.45,14.45,0,0,1,3.13,6.43,11.58,11.58,0,0,1-.65,6.65,12,12,0,0,1,6.56.73,14.41,14.41,0,0,1,8.92,14.1Z" transform="translate(-544 -153.42)"/><path class="cls-10" d="M1273.83,394.29l-12.53-20.82a8.27,8.27,0,0,0-3.53,5.07,7.78,7.78,0,0,0,1.07,5.73,6.85,6.85,0,0,0,6.88,3.63l4.67,7.76a15.12,15.12,0,0,1-9.6-.65,16.09,16.09,0,0,1-7.81-7,17.36,17.36,0,0,1-2.62-8.48,15,15,0,0,1,2.1-8.21,18.46,18.46,0,0,1,6.61-6.47,18.79,18.79,0,0,1,8.84-2.88,14.63,14.63,0,0,1,8.17,1.94,18.88,18.88,0,0,1,8.92,14.7,14.4,14.4,0,0,1-2,8,17.53,17.53,0,0,1-6.3,6.22A20,20,0,0,1,1273.83,394.29Zm.47-10.16a6.67,6.67,0,0,0,3.24-4.69,8.31,8.31,0,0,0-1.21-5.79,7.62,7.62,0,0,0-4.33-3.52,8.31,8.31,0,0,0-5.84.48Z" transform="translate(-544 -153.42)"/><path class="cls-10" d="M1303.36,419.5q-1.87,4.9-8,7.72l-17.69,8.2-3.53-7.62,16.66-7.72a8.62,8.62,0,0,0,4.7-4.36,7,7,0,0,0-.33-5.8,7.18,7.18,0,0,0-4.24-4.09,8.53,8.53,0,0,0-6.37.74l-16.66,7.72-3.53-7.62,30.16-14,3.52,7.63-3.76,1.74a11.61,11.61,0,0,1,4.88,2.47,13.28,13.28,0,0,1,3.52,4.68A12.83,12.83,0,0,1,1303.36,419.5Z" transform="translate(-544 -153.42)"/><path class="cls-10" d="M1308.28,442.76l-15.13,5.43a3.17,3.17,0,0,0-2,1.58,4,4,0,0,0,.22,2.82l1.32,3.67-6.66,2.39-1.79-5q-3.59-10,6.12-13.48l15.08-5.41-1.34-3.73,6.5-2.33,1.34,3.73,7.74-2.78,2.86,8-7.74,2.78,2.52,7-6.49,2.33Z" transform="translate(-544 -153.42)"/><line class="cls-11" x1="67.61" y1="288.64" x2="67.61" y2="288.64"/><path class="cls-10" d="M1312.13,723.51l-39-15.21,3.05-7.83,16.6,6.47,6.52-16.71-16.6-6.47,3.05-7.83,39,15.21-3.05,7.83-16-6.26-6.52,16.71,16,6.25Z" transform="translate(-544 -153.42)"/><path class="cls-10" d="M1268.36,721.32a15.3,15.3,0,0,1,8.15-2.51,18.05,18.05,0,0,1,9,2.28,17.7,17.7,0,0,1,6.9,6.2,15.65,15.65,0,0,1,2.45,8.26,18.84,18.84,0,0,1-8.14,15.38,15.64,15.64,0,0,1-8.21,2.61,17.69,17.69,0,0,1-9-2.22,17.33,17.33,0,0,1-6.87-6.25,16,16,0,0,1-2.41-8.34,18.15,18.15,0,0,1,2.23-8.77A17.49,17.49,0,0,1,1268.36,721.32Zm-.48,14.38a8.08,8.08,0,0,0,1.44,4.4,11.22,11.22,0,0,0,4.21,3.59q4.19,2.22,7.61,1.21a8.18,8.18,0,0,0,5.1-4.19,8,8,0,0,0,.57-6.52q-1.12-3.34-5.31-5.56T1274,727.3a7.8,7.8,0,0,0-5,4.08A8.74,8.74,0,0,0,1267.88,735.7Z" transform="translate(-544 -153.42)"/><path class="cls-10" d="M1268.37,770.76l-13.5-8.74a3.17,3.17,0,0,0-2.48-.64,4,4,0,0,0-2.11,1.88l-2.12,3.28-5.94-3.85,2.87-4.44q5.77-8.92,14.43-3.31l13.45,8.71,2.15-3.32,5.79,3.75-2.15,3.33,6.9,4.47-4.59,7.11-6.9-4.47-4,6.25-5.79-3.75Z" transform="translate(-544 -153.42)"/><path class="cls-10" d="M1225.4,812.84a10.31,10.31,0,0,1-6.51-2.53,10.62,10.62,0,0,1-3.44-5.08,11,11,0,0,1,0-6.22,17.49,17.49,0,0,1,3.67-6.56l11.67-13.79,31.95,27.08-11.16,13.19a18,18,0,0,1-5.8,4.72,10.46,10.46,0,0,1-6,1.09,10,10,0,0,1-5.28-2.39,9.55,9.55,0,0,1-3.41-5.45,10.44,10.44,0,0,1,.7-6.21A9.4,9.4,0,0,1,1225.4,812.84Zm-2.23-12.31a5,5,0,0,0,2,3.94,5.25,5.25,0,0,0,4.39,1.36,7.26,7.26,0,0,0,4.31-2.72l5.35-6.32-8.6-7.29-5.46,6.46A7.18,7.18,0,0,0,1223.17,800.53Zm21,.45-5,5.86a7,7,0,0,0-2,4.4,4.76,4.76,0,0,0,1.91,3.74,4.84,4.84,0,0,0,4,1.29,6.93,6.93,0,0,0,4-2.63l5-5.86Z" transform="translate(-544 -153.42)"/><path class="cls-10" d="M1193.45,838.71l17.6-16.75a8.26,8.26,0,0,0-5.71-2.35,7.76,7.76,0,0,0-5.36,2.29,6.86,6.86,0,0,0-2.05,7.51l-6.56,6.24a15.14,15.14,0,0,1-1.44-9.52,16.11,16.11,0,0,1,5.13-9.15,17.35,17.35,0,0,1,7.7-4.39,15,15,0,0,1,8.46.28,18.46,18.46,0,0,1,7.75,5.05,18.82,18.82,0,0,1,4.72,8,14.67,14.67,0,0,1-.12,8.4,18.88,18.88,0,0,1-12.41,11.89,14.37,14.37,0,0,1-8.21-.18,17.53,17.53,0,0,1-7.43-4.81A20,20,0,0,1,1193.45,838.71Zm10-1.75a6.66,6.66,0,0,0,5.27,2.15,8.28,8.28,0,0,0,5.39-2.43,7.63,7.63,0,0,0,2.5-5,8.32,8.32,0,0,0-1.73-5.61Z" transform="translate(-544 -153.42)"/><path class="cls-10" d="M1195,852.59a14.72,14.72,0,0,1-.72,8.08,14.53,14.53,0,0,1-4.87,6.33,13.59,13.59,0,0,1-6.09,2.74,13.22,13.22,0,0,1-5.85-.31l2.87,3.77-6.74,5.12-20.11-26.46,6.74-5.12,2.94,3.87a12.51,12.51,0,0,1,1.22-5.79,13.65,13.65,0,0,1,4.31-5.19,14.11,14.11,0,0,1,7.4-2.91,15.11,15.11,0,0,1,8,1.55,19.57,19.57,0,0,1,7.06,6A19.22,19.22,0,0,1,1195,852.59Zm-20.58,10.84a8.46,8.46,0,0,0,4.61.72,8.66,8.66,0,0,0,4.2-1.72,8.43,8.43,0,0,0,3.29-8.11,10.42,10.42,0,0,0-2.16-4.87,10.76,10.76,0,0,0-4.16-3.44,8.85,8.85,0,0,0-4.67-.79,8.25,8.25,0,0,0-4.14,1.64,8.66,8.66,0,0,0-2.78,3.58,8.47,8.47,0,0,0-.55,4.63,12.08,12.08,0,0,0,6.35,8.36Z" transform="translate(-544 -153.42)"/><path class="cls-10" d="M1138.34,896.12q-5.06-1.36-8.49-7.14l-10-16.77,7.23-4.28,9.37,15.79a8.63,8.63,0,0,0,4.81,4.23A7,7,0,0,0,1147,887a7.19,7.19,0,0,0,3.64-4.63,8.53,8.53,0,0,0-1.38-6.26l-9.37-15.79,7.23-4.28,17,28.58-7.23,4.28-2.11-3.56a11.57,11.57,0,0,1-2,5.1,13.25,13.25,0,0,1-4.3,4A12.83,12.83,0,0,1,1138.34,896.12Z" transform="translate(-544 -153.42)"/><path class="cls-10" d="M1108.74,878.57a12.94,12.94,0,0,1,6.33,1.48,10.11,10.11,0,0,1,4.22,4.2l-7.68,3.54a4.61,4.61,0,0,0-3-2.1,6.57,6.57,0,0,0-4.26.58,6.36,6.36,0,0,0-3,2.44,2.91,2.91,0,0,0-.2,2.8,2.6,2.6,0,0,0,2.52,1.52,31.11,31.11,0,0,0,5.51-.59,45,45,0,0,1,6.31-.86,10.6,10.6,0,0,1,4.94,1,7.9,7.9,0,0,1,3.79,4.13,8.61,8.61,0,0,1,.67,5.24,10.66,10.66,0,0,1-2.63,5.18,17.11,17.11,0,0,1-5.8,4.13q-5.39,2.48-9.85,1.27a11,11,0,0,1-6.9-5.64l7.3-3.37a4.35,4.35,0,0,0,2.82,2.17,7.44,7.44,0,0,0,6.89-2.81,2.68,2.68,0,0,0,.13-2.64,2.75,2.75,0,0,0-2.59-1.61,26,26,0,0,0-5.48.58,44.51,44.51,0,0,1-6.17.8,10.51,10.51,0,0,1-4.92-1,8.16,8.16,0,0,1-3.83-4.08,8.8,8.8,0,0,1-.72-5.35,10.47,10.47,0,0,1,2.64-5.15,17.28,17.28,0,0,1,5.75-4.07A17.56,17.56,0,0,1,1108.74,878.57Z" transform="translate(-544 -153.42)"/><path class="cls-10" d="M1027.83,949l.59-43.49L1038,903l15.22,26.81.32-30.94,9.49-2.59,21.63,37.65-8.7,2.31L1060.5,906.7l.08,33.63-9,2.41-16-29.2,1.08,33.18Z" transform="translate(-544 -153.42)"/><path class="cls-10" d="M983.5,926.07l24.13-2.89a8.26,8.26,0,0,0-3.17-5.3,7.77,7.77,0,0,0-5.66-1.37,6.87,6.87,0,0,0-6.14,4.79l-9,1.08a15.14,15.14,0,0,1,4.55-8.49,16.12,16.12,0,0,1,9.58-4.26,17.33,17.33,0,0,1,8.8,1.09,15,15,0,0,1,6.61,5.28,18.46,18.46,0,0,1,3.18,8.68,18.82,18.82,0,0,1-1,9.25,14.68,14.68,0,0,1-5.13,6.66,18.88,18.88,0,0,1-17.06,2.11,14.34,14.34,0,0,1-6.46-5.06,17.48,17.48,0,0,1-3.08-8.3A19.81,19.81,0,0,1,983.5,926.07Zm9.07,4.59a6.66,6.66,0,0,0,2.94,4.88,8.29,8.29,0,0,0,5.77,1.27,7.63,7.63,0,0,0,5-2.5,8.32,8.32,0,0,0,2-5.52Z" transform="translate(-544 -153.42)"/><path class="cls-10" d="M963.46,944.82a13.78,13.78,0,0,1-6.5,1.55,14.54,14.54,0,0,1-7.73-2,14.78,14.78,0,0,1-5.51-5.92,19.18,19.18,0,0,1-2.08-9,19.54,19.54,0,0,1,1.93-9,15.12,15.12,0,0,1,5.41-6.13,14.24,14.24,0,0,1,7.69-2.22,13.78,13.78,0,0,1,6.52,1.42,12.64,12.64,0,0,1,4.5,3.77l0-4.74,8.4-.07.37,44.4-8.4.07-.13-16A12,12,0,0,1,963.46,944.82Zm-12-10.25a8.53,8.53,0,0,0,3.27,3.3,8.7,8.7,0,0,0,4.36,1.11,8.38,8.38,0,0,0,4.28-1.21,8.67,8.67,0,0,0,3.21-3.42,11.7,11.7,0,0,0-.09-10.44,8.68,8.68,0,0,0-3.27-3.37,8.47,8.47,0,0,0-8.64.1,8.92,8.92,0,0,0-3.21,3.45,10.75,10.75,0,0,0-1.19,5.29A10.44,10.44,0,0,0,951.5,934.56Z" transform="translate(-544 -153.42)"/><path class="cls-10" d="M890.18,946.1a18.45,18.45,0,0,1-6.54-8.44,21.92,21.92,0,0,1-1-11.36A21.55,21.55,0,0,1,887,915.83a18.52,18.52,0,0,1,8.75-6,25,25,0,0,1,11.86-.79L922,911.22l-6.31,41.4-14.47-2.22A25,25,0,0,1,890.18,946.1Zm6-28q-4.1,3-5.09,9.48t2,10.66q3,4.19,9.53,5.19l5.87.9L912.66,917l-5.87-.9Q900.27,915.11,896.17,918.12Z" transform="translate(-544 -153.42)"/><path class="cls-10" d="M847,909.75l23.45,6.38a8.27,8.27,0,0,0-1-6.11,7.77,7.77,0,0,0-4.73-3.4,6.85,6.85,0,0,0-7.48,2.13l-8.74-2.38a15.13,15.13,0,0,1,7.39-6.16,16.1,16.1,0,0,1,10.48-.35,17.34,17.34,0,0,1,7.75,4.32,15,15,0,0,1,4.15,7.38,18.48,18.48,0,0,1-.3,9.25,18.81,18.81,0,0,1-4.4,8.19,14.63,14.63,0,0,1-7.25,4.25,18.88,18.88,0,0,1-16.6-4.46,14.39,14.39,0,0,1-4.1-7.12,17.53,17.53,0,0,1,.26-8.85A19.86,19.86,0,0,1,847,909.75Zm6.69,7.67a6.67,6.67,0,0,0,.9,5.62,8.31,8.31,0,0,0,4.87,3.35,7.62,7.62,0,0,0,5.56-.45,8.31,8.31,0,0,0,3.89-4.38Z" transform="translate(-544 -153.42)"/><path class="cls-10" d="M829.52,896.46l-17,20.76L804.16,914l23.45-26.57,9.51,3.68-.56,35.42-8.39-3.25Z" transform="translate(-544 -153.42)"/><path class="cls-10" d="M778.67,879.77l21.64,11a8.26,8.26,0,0,0,.32-6.17,7.77,7.77,0,0,0-3.94-4.3,6.86,6.86,0,0,0-7.76.55l-8.07-4.12a15.17,15.17,0,0,1,8.51-4.52,16.13,16.13,0,0,1,10.33,1.8,17.31,17.31,0,0,1,6.7,5.81,15,15,0,0,1,2.55,8.07,18.48,18.48,0,0,1-2.2,9,18.83,18.83,0,0,1-6,7.11,14.65,14.65,0,0,1-8,2.67A18.88,18.88,0,0,1,777.46,899a14.36,14.36,0,0,1-2.55-7.8,17.51,17.51,0,0,1,2.07-8.61A19.82,19.82,0,0,1,778.67,879.77Zm5,8.87a6.66,6.66,0,0,0-.28,5.69,8.29,8.29,0,0,0,4.08,4.27,7.63,7.63,0,0,0,5.54.7,8.32,8.32,0,0,0,4.71-3.49Z" transform="translate(-544 -153.42)"/><path class="cls-10" d="M749.82,897.43,773,859.54l7.17,4.37L757,901.8Z" transform="translate(-544 -153.42)"/><path class="cls-10" d="M760.33,853.27a15.31,15.31,0,0,1,1.35,8.42,18.05,18.05,0,0,1-3.5,8.57,17.72,17.72,0,0,1-7.1,6,15.68,15.68,0,0,1-8.52,1.28,18.83,18.83,0,0,1-14.1-10.19,15.61,15.61,0,0,1-1.45-8.49,17.67,17.67,0,0,1,3.45-8.61,17.34,17.34,0,0,1,7.15-5.94,16,16,0,0,1,8.59-1.23,18.17,18.17,0,0,1,8.37,3.42A17.5,17.5,0,0,1,760.33,853.27Zm-14.17-2.47a8.08,8.08,0,0,0-4.56.82,11.24,11.24,0,0,0-4.14,3.67q-2.78,3.84-2.26,7.36a8.18,8.18,0,0,0,3.44,5.63,8,8,0,0,0,6.38,1.46q3.47-.64,6.24-4.48t2.35-7.29a7.8,7.8,0,0,0-3.34-5.56A8.74,8.74,0,0,0,746.16,850.8Z" transform="translate(-544 -153.42)"/><path class="cls-10" d="M704.65,848.39a13.56,13.56,0,0,1-5.85-3.25,14.53,14.53,0,0,1-4.29-6.74,14.77,14.77,0,0,1,0-8.09,19.19,19.19,0,0,1,4.55-8,19.56,19.56,0,0,1,7.57-5.32,15.12,15.12,0,0,1,8.14-.83,14.25,14.25,0,0,1,7.16,3.59,13.43,13.43,0,0,1,3.76,5.45,13.83,13.83,0,0,1,.81,5.84l13.86-15.21,6.21,5.65-33.05,36.28-6.21-5.65,3.23-3.55A12.79,12.79,0,0,1,704.65,848.39Zm-1.84-15.62a8.51,8.51,0,0,0,.16,4.64,8.68,8.68,0,0,0,2.45,3.77,8.42,8.42,0,0,0,4,2,8.71,8.71,0,0,0,4.68-.33,11.7,11.7,0,0,0,7-7.72,8.67,8.67,0,0,0-.11-4.69,8.46,8.46,0,0,0-6.41-5.79,8.93,8.93,0,0,0-4.7.35,10.76,10.76,0,0,0-4.47,3.08A10.45,10.45,0,0,0,702.81,832.77Z" transform="translate(-544 -153.42)"/><path class="cls-10" d="M650.61,785.88q.53-5.28,5.74-9.53L671.45,764l5.31,6.51-14.22,11.61a8.31,8.31,0,0,0-3.37,5.31,7.12,7.12,0,0,0,1.81,5.49,7.22,7.22,0,0,0,5,2.9,8.22,8.22,0,0,0,5.89-2.22L686.13,782l5.31,6.51-14.22,11.61a8.31,8.31,0,0,0-3.37,5.31,7.12,7.12,0,0,0,1.81,5.49,7.3,7.3,0,0,0,5.08,2.94,8.23,8.23,0,0,0,5.89-2.22L700.86,800l5.31,6.51-25.74,21-5.31-6.51,3.11-2.54a11.19,11.19,0,0,1-5.19-1.14,13,13,0,0,1-4.48-3.59,14.41,14.41,0,0,1-3.12-6.43,11.57,11.57,0,0,1,.65-6.65,12,12,0,0,1-6.56-.73,14.41,14.41,0,0,1-8.92-14.1Z" transform="translate(-544 -153.42)"/><path class="cls-10" d="M640.17,738.55l12.53,20.82a8.27,8.27,0,0,0,3.53-5.07,7.77,7.77,0,0,0-1.07-5.73,6.85,6.85,0,0,0-6.88-3.63l-4.67-7.76a15.11,15.11,0,0,1,9.6.65,16.09,16.09,0,0,1,7.81,7,17.35,17.35,0,0,1,2.62,8.48,15,15,0,0,1-2.1,8.21,18.48,18.48,0,0,1-6.61,6.47,18.81,18.81,0,0,1-8.84,2.88,14.64,14.64,0,0,1-8.17-1.94,18.88,18.88,0,0,1-8.92-14.7,14.38,14.38,0,0,1,2-8,17.55,17.55,0,0,1,6.3-6.22A19.94,19.94,0,0,1,640.17,738.55Zm-.47,10.16a6.67,6.67,0,0,0-3.24,4.69,8.31,8.31,0,0,0,1.21,5.79,7.61,7.61,0,0,0,4.33,3.52,8.3,8.3,0,0,0,5.84-.47Z" transform="translate(-544 -153.42)"/><path class="cls-10" d="M610.64,713.33q1.87-4.9,8-7.72l17.69-8.2,3.52,7.63-16.66,7.72a8.62,8.62,0,0,0-4.69,4.36,7,7,0,0,0,.33,5.8A7.19,7.19,0,0,0,623,727a8.53,8.53,0,0,0,6.37-.74l16.66-7.72,3.52,7.63-30.16,14-3.52-7.62,3.76-1.74a11.58,11.58,0,0,1-4.88-2.47,13.27,13.27,0,0,1-3.52-4.68A12.83,12.83,0,0,1,610.64,713.33Z" transform="translate(-544 -153.42)"/><path class="cls-10" d="M605.72,690.08l15.13-5.43a3.17,3.17,0,0,0,2-1.58,4,4,0,0,0-.22-2.82l-1.32-3.67,6.66-2.39,1.79,5q3.59,10-6.12,13.48L608.58,698l1.34,3.73-6.49,2.33-1.34-3.73-7.74,2.78-2.86-8,7.74-2.78-2.52-7,6.49-2.33Z" transform="translate(-544 -153.42)"/></svg>